<svg width="44" height="29" viewBox="0 0 44 29" fill="none" xmlns="http://www.w3.org/2000/svg">
<path fill-rule="evenodd" clip-rule="evenodd" d="M22 0C1.688 0 0 19.875 0 19.875V22.937C8.438 29.188 22 29 22 29C22 29 35.562 29.188 44 22.938V19.876C44 19.875 42.312 0 22 0ZM22 25C10.25 25 7.688 22.625 7.688 22.625C13.938 19.75 22 19.875 22 19.875C22 19.875 30.062 19.75 36.312 22.625C36.312 22.625 33.75 25 22 25ZM4.312 15.563C4.312 15.563 12.438 12.625 22 12.625C31.562 12.625 39.688 15.562 39.688 15.562C35.125 2.624 22 3.062 22 3.062C22 3.062 8.875 2.625 4.312 15.563Z" fill="white"/>
</svg>
