<svg width="44" height="39" viewBox="0 0 44 39" fill="none" xmlns="http://www.w3.org/2000/svg">
<path d="M37.91 4.43802V15.307C37.91 15.307 38.015 18.042 35.085 18.042C32.016 18.042 31.96 15.307 31.96 15.307V8.89102C31.96 8.65102 31.624 6.98202 29.641 6.98202C27.016 6.98202 26.971 8.85902 26.971 8.85902V28.08C26.971 28.08 27 29.943 24.507 29.943C22 29.943 22 27.96 22 27.96V14.016C22 14.016 22 11.071 18.195 11.071C14.141 11.071 14.228 14.196 14.228 14.196V17.924C14.228 17.924 14.107 20.869 9.54 20.869C4.973 20.869 4.912 16.36 4.912 16.36V3.93802C3.168 2.97602 0 0.671021 0 0.671021V30.003C0 30.003 2.988 39 22 39C41.012 39 44 30.305 44 30.305V0.671021C41.062 3.50002 37.91 4.43802 37.91 4.43802Z" fill="white"/>
</svg>
